<!-- Generator: Adobe Illustrator 12.0.1, SVG Export Plug-In . SVG Version: 6.00 Build 51448)  -->
<svg xmlns:rdf="http://www.w3.org/1999/02/22-rdf-syntax-ns#" xmlns="http://www.w3.org/2000/svg" xml:space="preserve" height="141.153" width="264.936" version="1.1" xmlns:cc="http://creativecommons.org/ns#" xmlns:dc="http://purl.org/dc/elements/1.1/"><metadata><rdf:RDF><cc:Work rdf:about=""><dc:format>image/svg+xml</dc:format><dc:type rdf:resource="http://purl.org/dc/dcmitype/StillImage"/><dc:title/></cc:Work></rdf:RDF></metadata><path fill="#000" d="M160.625,3.53125c-2.30185,0-4.20085,0.7489-5.65625,2.28125-1.4554,1.5333-2.15625,3.6656-2.15625,6.375,0,1.4326,0.31335,2.80935,0.9375,4.09375s1.5397,2.2893,2.75,3.03125,2.55665,1.09375,4.09375,1.09375c1.4174,0,2.74325-0.32835,3.96875-1,1.22455-0.67165,2.17495-1.66155,2.84375-2.96875,0.66785-1.30625,1-2.7826,1-4.4375,0-1.6321-0.3029-3.0868-0.9375-4.375-0.63555-1.2882-1.5719-2.31115-2.78125-3.03125s-2.55485-1.0625-4.0625-1.0625zm10.65625,0.28125,0,16.3125,2.15625,0,0-7.6875,8.4375,0,0,7.6875,2.1875,0,0-16.3125-2.1875,0,0,6.71875-8.4375,0,0-6.71875-2.15625,0zm-10.65625,1.5625c1.07635,0,2.04175,0.2672,2.90625,0.8125s1.51845,1.32165,1.96875,2.3125c0.44935,0.99085,0.6875,2.1719,0.6875,3.5,0,2.10045-0.51085,3.7009-1.5625,4.84375s-2.40485,1.71875-4.03125,1.71875c-1.596,0-2.91045-0.5551-3.96875-1.6875s-1.59375-2.68975-1.59375-4.65625c0-2.45575,0.5533-4.20025,1.65625-5.25s2.408-1.59375,3.9375-1.59375zm-3.65625,17.125,2.75,25.84375-31.71875,18.40625-32.6875-18.875-32.625,18.875-22.9375-13.28125-0.8125,1.40625,22.9375,13.25,0,36.75-23.59375,13.625,0.8125,1.4375,23.59375-13.6875,32.625,18.875,33.5-19.28125,0-37.71875,31.8125-18.40625,31.78125,18.40625,0,27.6875,1.625,0,0-28.65625-32.53125-18.8125,2.75-25.84375-7.28125,0zm-126.8125,18.6875c-2.30185,0-4.1696,0.78015-5.625,2.3125-1.4554,1.5333-2.1875,3.6656-2.1875,6.375,0,1.43165,0.31335,2.77715,0.9375,4.0625,0.62415,1.2844,1.5397,2.2893,2.75,3.03125s2.5879,1.125,4.125,1.125c1.41835,0,2.74325-0.32835,3.96875-1s2.17495-1.66155,2.84375-2.96875c0.66785-1.30625,1-2.81385,1-4.46875,0-1.6321-0.33415-3.0868-0.96875-4.375-0.63555-1.2882-1.5397-2.2799-2.75-3s-2.5861-1.09375-4.09375-1.09375zm-23.53125,0.28125,0,16.34375,2.15625,0,0-7.6875,8.46875,0,0,7.6875,2.15625,0,0-16.34375-2.15625,0,0,6.71875-8.46875,0,0-6.71875-2.15625,0zm23,1.59375c0.184536-0.016415,0.371313,0,0.5625,0,1.07635,0,2.0408,0.2672,2.90625,0.8125s1.5194,1.32165,1.96875,2.3125,0.6875,2.14065,0.6875,3.46875c0,2.10045-0.54305,3.73215-1.59375,4.875-1.05165,1.14285-2.3736,1.6875-4,1.6875-1.596,0-2.9417-0.5551-4-1.6875s-1.59375-2.68975-1.59375-4.65625c0-2.4567,0.5533-4.20025,1.65625-5.25,0.965081-0.918531,2.1145-1.447593,3.40625-1.5625zm65.6875,6.65625,31.875,18.40625,0,36.75-31.875,18.375-31.8125-18.375,0-36.75,31.8125-18.40625zm0.4375,4.90625-0.8125,1.4375,26.96875,15.5625,0.8125-1.40625-26.96875-15.59375zm-28.21875,16.28125,0,31.15625,1.625,0,0-31.15625-1.625,0zm102.78125,27.0625,0,16.3125,2.15625,0,0-7.6875,8.46875,0,0,7.6875,2.15625,0,0-16.3125-2.15625,0,0,6.6875-8.46875,0,0-6.6875-2.15625,0zm16.34375,0,0,16.3125,2.09375,0,0-12.8125,8.5625,12.8125,2.21875,0,0-16.3125-2.09375,0,0,12.8125-8.53125-12.8125-2.25,0zm-64.75,3.40625-26.96875,15.625,0.8125,1.375,26.96875-15.59375-0.8125-1.40625zm81.375,8.78125-0.84375,1.40625,14.90625,8.625,0.8125-1.40625-14.875-8.625zm-173.125,6.375c-2.30185,0-4.1696,0.78014-5.625,2.3125-1.4554,1.53329-2.1875,3.63435-2.1875,6.34375,0,1.4326,0.31335,2.80935,0.9375,4.09375,0.62415,1.28439,1.5397,2.2893,2.75,3.03125,1.2103,0.74196,2.5879,1.125,4.125,1.125,1.41835,0,2.74325-0.3596,3.96875-1.03125s2.17495-1.66155,2.84375-2.96875c0.66785-1.30625,1-2.78261,1-4.4375,0-1.63211-0.33415-3.08679-0.96875-4.375-0.63555-1.2882-1.5397-2.27991-2.75-3-1.2103-0.72011-2.5861-1.09375-4.09375-1.09375zm196.34375,0c-1.4383,0-2.7405,0.3426-3.9375,1-1.1989,0.65741-2.1324,1.6077-2.78125,2.875-0.6479,1.26635-0.96875,2.73605-0.96875,4.4375,0,1.55991,0.30025,3.01555,0.875,4.375,0.5738,1.35945,1.3999,2.40775,2.5,3.125,1.102,0.71725,2.52375,1.09375,4.28125,1.09375,1.69765,0,3.1364-0.47335,4.3125-1.40625,1.1742-0.93195,1.9853-2.286,2.4375-4.0625l-2.15625-0.5625c-0.2964,1.3737-0.85055,2.42675-1.6875,3.125s-1.85505,1.03125-3.0625,1.03125c-0.99275,0-1.93005-0.23795-2.78125-0.75s-1.47125-1.30824-1.875-2.34375c-0.40375-1.03549-0.59375-2.23704-0.59375-3.625,0-1.07635,0.15895-2.1123,0.5-3.125,0.3401-1.01365,0.9405-1.83616,1.78125-2.4375,0.84265-0.60136,1.8729-0.90625,3.125-0.90625,1.0887,0,1.99865,0.271,2.71875,0.8125,0.71725,0.54151,1.2791,1.40625,1.65625,2.59375l2.09375-0.5c-0.437-1.50859-1.201-2.66684-2.3125-3.5-1.1115-0.8322-2.49385-1.25-4.125-1.25zm-219.875,0.28125,0,16.34375,2.15625,0,0-7.71875,8.46875,0,0,7.71875,2.15625,0,0-16.34375-2.15625,0,0,6.71875-8.46875,0,0-6.71875-2.15625,0zm229.34375,0,0,16.34375,2.1875,0,0-7.71875,8.4375,0,0,7.71875,2.15625,0,0-16.34375-2.15625,0,0,6.71875-8.4375,0,0-6.71875-2.1875,0zm-205.78125,1.5625c1.07635,0,2.0408,0.29846,2.90625,0.84375,0.86545,0.5453,1.5194,1.2904,1.96875,2.28125s0.6875,2.1719,0.6875,3.5c0,2.10045-0.54305,3.7009-1.59375,4.84375-1.05165,1.14285-2.3736,1.71875-4,1.71875-1.596,0-2.9417-0.5551-4-1.6875s-1.59375-2.68974-1.59375-4.65625c0-2.45669,0.5533-4.20025,1.65625-5.25s2.43925-1.59375,3.96875-1.59375zm223.9375,6.75c-0.9709,0-1.7858,0.2899-2.4375,0.84375-0.6517,0.5548-1.06665,1.33485-1.25,2.34375l1.5,0.25c0.11115-0.73625,0.35955-1.2867,0.75-1.65625,0.3914-0.36859,0.8826-0.53125,1.46875-0.53125,0.59185,0,1.0632,0.17119,1.4375,0.53125,0.3743,0.36004,0.5625,0.82495,0.5625,1.375,0,0.69445-0.26825,1.19875-0.78125,1.53125s-1.07845,0.5-1.71875,0.5c-0.06175,0-0.15025-0.01985-0.25-0.03125l-0.15625,1.34375c0.42465-0.11115,0.77655-0.1875,1.0625-0.1875,0.6992,0,1.2656,0.24005,1.71875,0.6875,0.4541,0.4484,0.6875,0.99685,0.6875,1.6875,0,0.72295-0.23045,1.3545-0.71875,1.84375-0.48545,0.48925-1.09715,0.71875-1.8125,0.71875-0.6023,0-1.1161-0.1863-1.53125-0.5625-0.4142-0.37525-0.70115-0.99255-0.875-1.84375l-1.5,0.21875c0.1007,1.01745,0.50625,1.8294,1.21875,2.46875,0.7106,0.6403,1.61115,0.96875,2.6875,0.96875,1.1932,0,2.18785-0.38115,2.96875-1.125,0.77995-0.74289,1.15625-1.65,1.15625-2.71875,0-0.7904-0.19095-1.4434-0.59375-1.96875-0.40375-0.52725-0.9636-0.86405-1.6875-1.03125,0.5567-0.2565,0.96595-0.59805,1.25-1.03125s0.4375-0.90931,0.4375-1.4375c0-0.55576-0.1714-1.0988-0.46875-1.59375-0.2983-0.49399-0.71885-0.87029-1.28125-1.15625-0.5624-0.2869-1.17495-0.4375-1.84375-0.4375z" transform="translate(-2.4338954e-6,0)"/></svg>
